<mxfile host="app.diagrams.net" modified="2023-09-12T11:34:30.055Z" agent="Mozilla/5.0 (Windows NT 10.0; Win64; x64) AppleWebKit/537.36 (KHTML, like Gecko) Chrome/116.0.0.0 Safari/537.36" etag="SyQrO5pAYAqwHrh3-gmy" version="21.7.4" type="device">
  <diagram name="Page-1" id="5f0bae14-7c28-e335-631c-24af17079c00">
    <mxGraphModel dx="2609" dy="1682" grid="1" gridSize="10" guides="1" tooltips="1" connect="1" arrows="1" fold="1" page="1" pageScale="1" pageWidth="1100" pageHeight="850" background="none" math="0" shadow="0">
      <root>
        <mxCell id="0" />
        <mxCell id="1" parent="0" />
        <mxCell id="LLe29w_TeNFxhY9KEsax-7" style="edgeStyle=orthogonalEdgeStyle;rounded=0;orthogonalLoop=1;jettySize=auto;html=1;entryX=0.5;entryY=0;entryDx=0;entryDy=0;" edge="1" parent="1" source="39150e848f15840c-1" target="LLe29w_TeNFxhY9KEsax-6">
          <mxGeometry relative="1" as="geometry">
            <Array as="points">
              <mxPoint x="185" y="320" />
              <mxPoint x="185" y="320" />
            </Array>
          </mxGeometry>
        </mxCell>
        <mxCell id="39150e848f15840c-1" value="Приложение пользователя" style="verticalAlign=top;align=left;spacingTop=8;spacingLeft=2;spacingRight=12;shape=cube;size=10;direction=south;fontStyle=4;html=1;rounded=0;shadow=0;comic=0;labelBackgroundColor=none;strokeWidth=1;fontFamily=Verdana;fontSize=12" parent="1" vertex="1">
          <mxGeometry x="120" y="60" width="330" height="220" as="geometry" />
        </mxCell>
        <mxCell id="39150e848f15840c-2" value="Система анализа ошибок" style="verticalAlign=top;align=left;spacingTop=8;spacingLeft=2;spacingRight=12;shape=cube;size=10;direction=south;fontStyle=4;html=1;rounded=0;shadow=0;comic=0;labelBackgroundColor=none;strokeWidth=1;fontFamily=Verdana;fontSize=12" parent="1" vertex="1">
          <mxGeometry x="580" y="-20" width="360" height="300" as="geometry" />
        </mxCell>
        <mxCell id="39150e848f15840c-3" value="Программный агент" style="verticalAlign=top;align=left;spacingTop=8;spacingLeft=2;spacingRight=12;shape=cube;size=10;direction=south;fontStyle=4;html=1;rounded=0;shadow=0;comic=0;labelBackgroundColor=none;strokeWidth=1;fontFamily=Verdana;fontSize=12" parent="1" vertex="1">
          <mxGeometry x="560" y="390" width="400" height="230" as="geometry" />
        </mxCell>
        <mxCell id="39150e848f15840c-4" value="«interface»&lt;br&gt;&lt;b&gt;Пользователь&lt;/b&gt;" style="html=1;rounded=0;shadow=0;comic=0;labelBackgroundColor=none;strokeWidth=1;fontFamily=Verdana;fontSize=12;align=center;" parent="1" vertex="1">
          <mxGeometry x="130" y="140" width="110" height="50" as="geometry" />
        </mxCell>
        <mxCell id="39150e848f15840c-5" value="Демонстрация окна приложения" style="shape=component;align=center;spacingLeft=36;rounded=0;shadow=0;comic=0;labelBackgroundColor=none;strokeWidth=1;fontFamily=Verdana;fontSize=12;html=1;whiteSpace=wrap;" parent="1" vertex="1">
          <mxGeometry x="290" y="135" width="140" height="60" as="geometry" />
        </mxCell>
        <mxCell id="39150e848f15840c-7" value="Мониторинг событий" style="shape=component;align=left;spacingLeft=36;rounded=0;shadow=0;comic=0;labelBackgroundColor=none;strokeWidth=1;fontFamily=Verdana;fontSize=12;html=1;whiteSpace=wrap;" parent="1" vertex="1">
          <mxGeometry x="770" width="140" height="60" as="geometry" />
        </mxCell>
        <mxCell id="39150e848f15840c-10" value="Работа с системным меню" style="shape=component;align=left;spacingLeft=36;rounded=0;shadow=0;comic=0;labelBackgroundColor=none;strokeWidth=1;fontFamily=Verdana;fontSize=12;html=1;whiteSpace=wrap;" parent="1" vertex="1">
          <mxGeometry x="780" y="410" width="120" height="60" as="geometry" />
        </mxCell>
        <mxCell id="LLe29w_TeNFxhY9KEsax-46" style="edgeStyle=orthogonalEdgeStyle;rounded=0;orthogonalLoop=1;jettySize=auto;html=1;exitX=1;exitY=0.5;exitDx=0;exitDy=0;entryX=0;entryY=0.3;entryDx=0;entryDy=0;dashed=1;endArrow=open;endFill=0;" edge="1" parent="1" source="LLe29w_TeNFxhY9KEsax-1" target="39150e848f15840c-7">
          <mxGeometry relative="1" as="geometry" />
        </mxCell>
        <mxCell id="LLe29w_TeNFxhY9KEsax-47" style="edgeStyle=orthogonalEdgeStyle;rounded=0;orthogonalLoop=1;jettySize=auto;html=1;exitX=1;exitY=0.5;exitDx=0;exitDy=0;entryX=0;entryY=0.3;entryDx=0;entryDy=0;dashed=1;endArrow=open;endFill=0;" edge="1" parent="1" source="LLe29w_TeNFxhY9KEsax-1" target="LLe29w_TeNFxhY9KEsax-42">
          <mxGeometry relative="1" as="geometry" />
        </mxCell>
        <mxCell id="LLe29w_TeNFxhY9KEsax-48" style="edgeStyle=orthogonalEdgeStyle;rounded=0;orthogonalLoop=1;jettySize=auto;html=1;exitX=1;exitY=0.5;exitDx=0;exitDy=0;entryX=0;entryY=0.3;entryDx=0;entryDy=0;dashed=1;endArrow=open;endFill=0;" edge="1" parent="1" source="LLe29w_TeNFxhY9KEsax-1" target="LLe29w_TeNFxhY9KEsax-43">
          <mxGeometry relative="1" as="geometry" />
        </mxCell>
        <mxCell id="LLe29w_TeNFxhY9KEsax-49" style="edgeStyle=orthogonalEdgeStyle;rounded=0;orthogonalLoop=1;jettySize=auto;html=1;exitX=1;exitY=0.5;exitDx=0;exitDy=0;entryX=0;entryY=0.3;entryDx=0;entryDy=0;dashed=1;startArrow=open;startFill=0;endArrow=open;endFill=0;" edge="1" parent="1" source="LLe29w_TeNFxhY9KEsax-1" target="LLe29w_TeNFxhY9KEsax-44">
          <mxGeometry relative="1" as="geometry" />
        </mxCell>
        <mxCell id="LLe29w_TeNFxhY9KEsax-1" value="«interface»&lt;br&gt;&lt;b&gt;Пользователь&lt;/b&gt;" style="html=1;rounded=0;shadow=0;comic=0;labelBackgroundColor=none;strokeWidth=1;fontFamily=Verdana;fontSize=12;align=center;" vertex="1" parent="1">
          <mxGeometry x="590" y="110" width="110" height="50" as="geometry" />
        </mxCell>
        <mxCell id="LLe29w_TeNFxhY9KEsax-39" style="edgeStyle=orthogonalEdgeStyle;rounded=0;orthogonalLoop=1;jettySize=auto;html=1;exitX=1;exitY=0.5;exitDx=0;exitDy=0;entryX=0;entryY=0.3;entryDx=0;entryDy=0;dashed=1;endArrow=open;endFill=0;" edge="1" parent="1" source="LLe29w_TeNFxhY9KEsax-2" target="39150e848f15840c-10">
          <mxGeometry relative="1" as="geometry" />
        </mxCell>
        <mxCell id="LLe29w_TeNFxhY9KEsax-40" style="edgeStyle=orthogonalEdgeStyle;rounded=0;orthogonalLoop=1;jettySize=auto;html=1;exitX=1;exitY=0.5;exitDx=0;exitDy=0;entryX=0;entryY=0.3;entryDx=0;entryDy=0;dashed=1;endArrow=open;endFill=0;" edge="1" parent="1" source="LLe29w_TeNFxhY9KEsax-2" target="LLe29w_TeNFxhY9KEsax-37">
          <mxGeometry relative="1" as="geometry" />
        </mxCell>
        <mxCell id="LLe29w_TeNFxhY9KEsax-41" style="edgeStyle=orthogonalEdgeStyle;rounded=0;orthogonalLoop=1;jettySize=auto;html=1;exitX=1;exitY=0.5;exitDx=0;exitDy=0;entryX=0;entryY=0.3;entryDx=0;entryDy=0;startArrow=open;startFill=0;dashed=1;endArrow=open;endFill=0;" edge="1" parent="1" source="LLe29w_TeNFxhY9KEsax-2" target="LLe29w_TeNFxhY9KEsax-38">
          <mxGeometry relative="1" as="geometry" />
        </mxCell>
        <mxCell id="LLe29w_TeNFxhY9KEsax-2" value="«interface»&lt;br&gt;&lt;b&gt;Пользователь&lt;/b&gt;" style="html=1;rounded=0;shadow=0;comic=0;labelBackgroundColor=none;strokeWidth=1;fontFamily=Verdana;fontSize=12;align=center;" vertex="1" parent="1">
          <mxGeometry x="580" y="490" width="110" height="50" as="geometry" />
        </mxCell>
        <mxCell id="LLe29w_TeNFxhY9KEsax-3" value="" style="endArrow=open;dashed=1;html=1;rounded=0;entryX=0;entryY=0.3;entryDx=0;entryDy=0;exitX=1;exitY=0.25;exitDx=0;exitDy=0;startArrow=none;startFill=0;endFill=0;" edge="1" parent="1" source="39150e848f15840c-4" target="39150e848f15840c-5">
          <mxGeometry width="50" height="50" relative="1" as="geometry">
            <mxPoint x="520" y="430" as="sourcePoint" />
            <mxPoint x="570" y="380" as="targetPoint" />
          </mxGeometry>
        </mxCell>
        <mxCell id="LLe29w_TeNFxhY9KEsax-9" style="edgeStyle=orthogonalEdgeStyle;rounded=0;orthogonalLoop=1;jettySize=auto;html=1;exitX=0.5;exitY=1;exitDx=0;exitDy=0;entryX=0.5;entryY=0;entryDx=0;entryDy=0;" edge="1" parent="1" source="LLe29w_TeNFxhY9KEsax-6" target="LLe29w_TeNFxhY9KEsax-8">
          <mxGeometry relative="1" as="geometry" />
        </mxCell>
        <mxCell id="LLe29w_TeNFxhY9KEsax-6" value="SLF4J" style="rounded=0;whiteSpace=wrap;html=1;" vertex="1" parent="1">
          <mxGeometry x="125" y="365" width="120" height="60" as="geometry" />
        </mxCell>
        <mxCell id="LLe29w_TeNFxhY9KEsax-14" style="edgeStyle=orthogonalEdgeStyle;rounded=0;orthogonalLoop=1;jettySize=auto;html=1;exitX=0.25;exitY=1;exitDx=0;exitDy=0;entryX=0.875;entryY=0;entryDx=0;entryDy=0;entryPerimeter=0;" edge="1" parent="1" source="LLe29w_TeNFxhY9KEsax-8" target="LLe29w_TeNFxhY9KEsax-10">
          <mxGeometry relative="1" as="geometry" />
        </mxCell>
        <mxCell id="LLe29w_TeNFxhY9KEsax-15" style="edgeStyle=orthogonalEdgeStyle;rounded=0;orthogonalLoop=1;jettySize=auto;html=1;exitX=0.75;exitY=1;exitDx=0;exitDy=0;entryX=0.192;entryY=0.017;entryDx=0;entryDy=0;entryPerimeter=0;" edge="1" parent="1" source="LLe29w_TeNFxhY9KEsax-8" target="LLe29w_TeNFxhY9KEsax-11">
          <mxGeometry relative="1" as="geometry" />
        </mxCell>
        <mxCell id="LLe29w_TeNFxhY9KEsax-8" value="LOG4J" style="rounded=0;whiteSpace=wrap;html=1;" vertex="1" parent="1">
          <mxGeometry x="125" y="460" width="120" height="60" as="geometry" />
        </mxCell>
        <mxCell id="LLe29w_TeNFxhY9KEsax-10" value="Console Appender" style="rounded=0;whiteSpace=wrap;html=1;" vertex="1" parent="1">
          <mxGeometry x="50" y="550" width="120" height="60" as="geometry" />
        </mxCell>
        <mxCell id="LLe29w_TeNFxhY9KEsax-32" style="edgeStyle=orthogonalEdgeStyle;rounded=0;orthogonalLoop=1;jettySize=auto;html=1;exitX=1;exitY=0.5;exitDx=0;exitDy=0;dashed=1;" edge="1" parent="1" source="LLe29w_TeNFxhY9KEsax-11" target="LLe29w_TeNFxhY9KEsax-18">
          <mxGeometry relative="1" as="geometry" />
        </mxCell>
        <mxCell id="LLe29w_TeNFxhY9KEsax-11" value="Socket Appender" style="rounded=0;whiteSpace=wrap;html=1;" vertex="1" parent="1">
          <mxGeometry x="190" y="550" width="120" height="60" as="geometry" />
        </mxCell>
        <mxCell id="LLe29w_TeNFxhY9KEsax-16" value="&lt;h1&gt;Библиотеки для джавы программы (логирование, протоколирование)&lt;/h1&gt;" style="text;html=1;strokeColor=none;fillColor=none;spacing=5;spacingTop=-20;whiteSpace=wrap;overflow=hidden;rounded=0;" vertex="1" parent="1">
          <mxGeometry x="-250" y="520" width="240" height="160" as="geometry" />
        </mxCell>
        <mxCell id="LLe29w_TeNFxhY9KEsax-33" style="edgeStyle=orthogonalEdgeStyle;rounded=0;orthogonalLoop=1;jettySize=auto;html=1;exitX=1;exitY=0.5;exitDx=0;exitDy=0;entryX=0.865;entryY=1.002;entryDx=0;entryDy=0;entryPerimeter=0;dashed=1;" edge="1" parent="1" source="LLe29w_TeNFxhY9KEsax-18" target="39150e848f15840c-3">
          <mxGeometry relative="1" as="geometry" />
        </mxCell>
        <mxCell id="LLe29w_TeNFxhY9KEsax-18" value="Socket Server" style="rounded=0;whiteSpace=wrap;html=1;" vertex="1" parent="1">
          <mxGeometry x="360" y="550" width="120" height="60" as="geometry" />
        </mxCell>
        <mxCell id="LLe29w_TeNFxhY9KEsax-31" style="edgeStyle=orthogonalEdgeStyle;rounded=0;orthogonalLoop=1;jettySize=auto;html=1;entryX=1.008;entryY=0.4;entryDx=0;entryDy=0;entryPerimeter=0;startArrow=classic;startFill=1;" edge="1" parent="1" source="LLe29w_TeNFxhY9KEsax-19" target="39150e848f15840c-3">
          <mxGeometry relative="1" as="geometry" />
        </mxCell>
        <mxCell id="LLe29w_TeNFxhY9KEsax-19" value="LOG4J" style="rounded=0;whiteSpace=wrap;html=1;" vertex="1" parent="1">
          <mxGeometry x="740" y="660" width="120" height="60" as="geometry" />
        </mxCell>
        <mxCell id="LLe29w_TeNFxhY9KEsax-35" style="edgeStyle=orthogonalEdgeStyle;rounded=0;orthogonalLoop=1;jettySize=auto;html=1;entryX=0;entryY=0.4;entryDx=0;entryDy=0;entryPerimeter=0;startArrow=classic;startFill=1;" edge="1" parent="1" source="LLe29w_TeNFxhY9KEsax-30" target="39150e848f15840c-3">
          <mxGeometry relative="1" as="geometry" />
        </mxCell>
        <mxCell id="LLe29w_TeNFxhY9KEsax-59" style="edgeStyle=orthogonalEdgeStyle;rounded=0;orthogonalLoop=1;jettySize=auto;html=1;exitX=0.5;exitY=0;exitDx=0;exitDy=0;endArrow=none;endFill=0;startArrow=classic;startFill=1;" edge="1" parent="1" source="LLe29w_TeNFxhY9KEsax-30">
          <mxGeometry relative="1" as="geometry">
            <mxPoint x="800.0555555555557" y="280.0000000000002" as="targetPoint" />
          </mxGeometry>
        </mxCell>
        <mxCell id="LLe29w_TeNFxhY9KEsax-30" value="JMS" style="rounded=0;whiteSpace=wrap;html=1;" vertex="1" parent="1">
          <mxGeometry x="740" y="305" width="120" height="60" as="geometry" />
        </mxCell>
        <mxCell id="LLe29w_TeNFxhY9KEsax-37" value="Ввод сообщений" style="shape=component;align=left;spacingLeft=36;rounded=0;shadow=0;comic=0;labelBackgroundColor=none;strokeWidth=1;fontFamily=Verdana;fontSize=12;html=1;whiteSpace=wrap;" vertex="1" parent="1">
          <mxGeometry x="780" y="480" width="120" height="60" as="geometry" />
        </mxCell>
        <mxCell id="LLe29w_TeNFxhY9KEsax-38" value="Ввод отчета" style="shape=component;align=left;spacingLeft=36;rounded=0;shadow=0;comic=0;labelBackgroundColor=none;strokeWidth=1;fontFamily=Verdana;fontSize=12;html=1;whiteSpace=wrap;" vertex="1" parent="1">
          <mxGeometry x="780" y="550" width="120" height="60" as="geometry" />
        </mxCell>
        <mxCell id="LLe29w_TeNFxhY9KEsax-42" value="Мониторинг реакций на ошибки&amp;nbsp;" style="shape=component;align=left;spacingLeft=36;rounded=0;shadow=0;comic=0;labelBackgroundColor=none;strokeWidth=1;fontFamily=Verdana;fontSize=12;html=1;whiteSpace=wrap;" vertex="1" parent="1">
          <mxGeometry x="770" y="70" width="140" height="60" as="geometry" />
        </mxCell>
        <mxCell id="LLe29w_TeNFxhY9KEsax-43" value="Просмотр правил" style="shape=component;align=left;spacingLeft=36;rounded=0;shadow=0;comic=0;labelBackgroundColor=none;strokeWidth=1;fontFamily=Verdana;fontSize=12;html=1;whiteSpace=wrap;" vertex="1" parent="1">
          <mxGeometry x="770" y="140" width="140" height="60" as="geometry" />
        </mxCell>
        <mxCell id="LLe29w_TeNFxhY9KEsax-44" value="Редактирование правил" style="shape=component;align=left;spacingLeft=36;rounded=0;shadow=0;comic=0;labelBackgroundColor=none;strokeWidth=1;fontFamily=Verdana;fontSize=12;html=1;whiteSpace=wrap;" vertex="1" parent="1">
          <mxGeometry x="770" y="210" width="140" height="60" as="geometry" />
        </mxCell>
        <mxCell id="LLe29w_TeNFxhY9KEsax-58" style="edgeStyle=orthogonalEdgeStyle;rounded=0;orthogonalLoop=1;jettySize=auto;html=1;exitX=0;exitY=0.5;exitDx=0;exitDy=0;entryX=0.833;entryY=0.001;entryDx=0;entryDy=0;entryPerimeter=0;startArrow=classic;startFill=1;" edge="1" parent="1" source="LLe29w_TeNFxhY9KEsax-53" target="39150e848f15840c-2">
          <mxGeometry relative="1" as="geometry" />
        </mxCell>
        <mxCell id="LLe29w_TeNFxhY9KEsax-53" value="Реестр знаний" style="rounded=0;whiteSpace=wrap;html=1;" vertex="1" parent="1">
          <mxGeometry x="980" y="200" width="120" height="60" as="geometry" />
        </mxCell>
        <mxCell id="LLe29w_TeNFxhY9KEsax-57" style="edgeStyle=orthogonalEdgeStyle;rounded=0;orthogonalLoop=1;jettySize=auto;html=1;exitX=0;exitY=0.5;exitDx=0;exitDy=0;entryX=0.516;entryY=0.002;entryDx=0;entryDy=0;entryPerimeter=0;startArrow=classic;startFill=1;" edge="1" parent="1" source="LLe29w_TeNFxhY9KEsax-54" target="39150e848f15840c-2">
          <mxGeometry relative="1" as="geometry" />
        </mxCell>
        <mxCell id="LLe29w_TeNFxhY9KEsax-54" value="Drools" style="rounded=0;whiteSpace=wrap;html=1;" vertex="1" parent="1">
          <mxGeometry x="980" y="105" width="120" height="60" as="geometry" />
        </mxCell>
        <mxCell id="LLe29w_TeNFxhY9KEsax-55" value="&lt;h1&gt;Система управления бизнес правилами&lt;/h1&gt;" style="text;html=1;strokeColor=none;fillColor=none;spacing=5;spacingTop=-20;whiteSpace=wrap;overflow=hidden;rounded=0;" vertex="1" parent="1">
          <mxGeometry x="1110" y="105" width="290" height="60" as="geometry" />
        </mxCell>
      </root>
    </mxGraphModel>
  </diagram>
</mxfile>
